<svg xmlns="http://www.w3.org/2000/svg" width="172" height="32" viewBox="0 0 172 32" fill="none"><g clip-path="url(#clip0_43_502)"><path d="M45.3064 21.6151C45.3064 27.3508 40.6825 32 34.9779 32C35.0025 32 24.2284 32 16.9475 32C20.2582 32 23.2449 30.6008 25.3534 28.3596L33.0834 20.4711C35.5603 18.3369 37.1309 15.1693 37.1309 11.6336C37.1309 11.5748 37.1297 11.5148 37.1285 11.456C41.8004 12.4508 45.3064 16.6214 45.3064 21.6151Z" fill="url(#paint0_linear_43_502)"></path><path d="M37.1309 11.6336C37.1309 15.1705 35.5603 18.3381 33.0835 20.4711L25.3535 28.3597C23.245 30.6008 20.2582 32 16.9475 32C16.937 32 16.9277 32 16.9171 32L16.9475 32.0259H10.0163C10.056 32.0259 10.0958 32.0235 10.1344 32.0212C11.5775 31.9788 12.941 31.6143 14.1537 30.9947C14.908 30.6102 15.6039 30.1269 16.226 29.5625C17.4446 28.4761 18.3906 27.0898 18.9484 25.5165C19.3145 24.4865 19.5145 23.3753 19.5145 22.2183C19.5145 16.8001 15.1454 12.4073 9.75666 12.4073C9.30525 12.4073 8.86203 12.4378 8.427 12.4978C8.63282 12.2721 8.84683 12.0534 9.07019 11.8452L17.0563 3.74617C19.1706 1.44273 22.1972 0 25.5605 0C31.9503 0 37.1309 5.20772 37.1309 11.6336Z" fill="url(#paint1_linear_43_502)"></path><path d="M19.5156 22.2183C19.5156 23.3754 19.3168 24.4853 18.9496 25.5165C18.1076 27.8905 16.3803 29.8436 14.1678 30.9723C12.844 31.6484 11.3459 32.0294 9.75897 32.0294C4.36903 32.0294 0 27.6365 0 22.2183C0 17.4139 3.43464 13.4161 7.96973 12.5719C8.54977 12.4626 9.14619 12.4073 9.7578 12.4073C15.1466 12.4073 19.5156 16.8002 19.5156 22.2183Z" fill="url(#paint2_linear_43_502)"></path><path d="M54.7146 11.3314C55.6317 11.3314 56.3752 10.5839 56.3752 9.66173C56.3752 8.7396 55.6317 7.99207 54.7146 7.99207C53.7974 7.99207 53.054 8.7396 53.054 9.66173C53.054 10.5839 53.7974 11.3314 54.7146 11.3314Z" fill="#171C37"></path><path d="M56.2043 12.5942V23.9209H53.3579V12.5942H56.2043ZM67.9981 13.7089C68.8249 14.5602 69.2389 15.7501 69.2389 17.2764V23.9209H66.3925V17.6656C66.3925 16.7661 66.1691 16.0747 65.7212 15.5902C65.2733 15.107 64.6641 14.8647 63.8911 14.8647C63.1181 14.8647 62.4842 15.107 62.0305 15.5902C61.5767 16.0747 61.3487 16.7661 61.3487 17.6656V23.9209H58.5023V12.5942H61.3487V14.0052C61.7276 13.5149 62.2129 13.1292 62.8023 12.8506C63.3917 12.5719 64.0396 12.4308 64.7447 12.4308C66.0873 12.4308 67.1713 12.8564 67.9981 13.7089ZM76.1304 21.2836L78.9768 12.5942H82.0068L77.839 23.9209H74.3821L70.2341 12.5942H73.284L76.1304 21.2836ZM93.4954 19.1165H85.2602C85.3281 19.9337 85.6122 20.5745 86.1139 21.0378C86.6156 21.5011 87.2319 21.7327 87.964 21.7327C89.0211 21.7327 89.7743 21.2765 90.221 20.3629H93.2908C92.9657 21.4541 92.3423 22.35 91.4197 23.0508C90.4981 23.7528 89.3661 24.1032 88.0236 24.1032C86.9384 24.1032 85.9666 23.861 85.1059 23.3777C84.2451 22.8944 83.5739 22.2089 83.0932 21.3235C82.6114 20.4381 82.3717 19.4152 82.3717 18.257C82.3717 17.0988 82.6091 16.0559 83.0827 15.1705C83.5575 14.2851 84.2218 13.6031 85.0754 13.1257C85.9291 12.6483 86.9126 12.4108 88.0236 12.4108C89.1346 12.4108 90.0538 12.6424 90.9004 13.1057C91.7471 13.569 92.4055 14.2275 92.8733 15.0787C93.341 15.93 93.5749 16.9083 93.5749 18.0124C93.5749 18.4216 93.5469 18.7896 93.4931 19.1165H93.4954ZM90.6279 17.194C90.6139 16.458 90.3496 15.8689 89.8351 15.4256C89.3193 14.9823 88.689 14.7613 87.9441 14.7613C87.2389 14.7613 86.646 14.9765 86.1654 15.4056C85.6836 15.8348 85.3889 16.4309 85.2813 17.194H90.6291H90.6279ZM104.638 13.7089C105.465 14.5602 105.879 15.7501 105.879 17.2764V23.9209H103.032V17.6656C103.032 16.7661 102.809 16.0747 102.361 15.5902C101.913 15.107 101.304 14.8647 100.531 14.8647C99.7578 14.8647 99.1239 15.107 98.6702 15.5902C98.2164 16.0747 97.9884 16.7661 97.9884 17.6656V23.9209H95.142V12.5942H97.9884V14.0052C98.3673 13.5149 98.8526 13.1292 99.442 12.8506C100.031 12.5719 100.679 12.4308 101.384 12.4308C102.727 12.4308 103.811 12.8564 104.638 13.7089ZM111.388 14.9459V20.4252C111.388 20.8074 111.479 21.0825 111.663 21.253C111.846 21.4235 112.154 21.5081 112.588 21.5081H113.909V23.9209H112.12C109.72 23.9209 108.522 22.7486 108.522 20.404V14.9459H107.179V12.5942H108.522V9.79343H111.389V12.5942H113.91V14.9459H111.389H111.388Z" fill="#171C37"></path><path d="M115.709 12.9928C116.339 11.8829 117.2 11.0163 118.291 10.3966C119.382 9.77697 120.606 9.46655 121.961 9.46655C123.547 9.46655 124.936 9.87573 126.129 10.6929C127.322 11.5101 128.155 12.6424 128.63 14.0864H125.357C125.032 13.4056 124.575 12.8941 123.984 12.5531C123.395 12.2121 122.713 12.0416 121.941 12.0416C121.114 12.0416 120.379 12.2356 119.735 12.6248C119.091 13.0128 118.589 13.5619 118.23 14.271C117.871 14.98 117.691 15.8113 117.691 16.7649C117.691 17.7185 117.87 18.5333 118.23 19.2494C118.589 19.9643 119.091 20.5169 119.735 20.9049C120.379 21.293 121.114 21.4882 121.941 21.4882C122.714 21.4882 123.395 21.3141 123.984 20.9661C124.573 20.618 125.031 20.1042 125.357 19.4222H128.63C128.155 20.8803 127.325 22.0149 126.139 22.8262C124.952 23.6376 123.56 24.042 121.961 24.042C120.606 24.042 119.381 23.7328 118.291 23.112C117.2 22.4923 116.339 21.6293 115.709 20.5263C115.079 19.4222 114.764 18.1688 114.764 16.7649C114.764 15.3609 115.079 14.104 115.709 12.9928ZM133.409 8.79163V23.9198H130.562V8.79163H133.409ZM137.78 23.3789C136.912 22.8956 136.232 22.2101 135.737 21.3247C135.242 20.4393 134.994 19.4164 134.994 18.2582C134.994 17.1 135.248 16.0782 135.757 15.1916C136.265 14.3062 136.959 13.6207 137.841 13.1375C138.721 12.6542 139.705 12.412 140.789 12.412C141.873 12.412 142.856 12.6542 143.737 13.1375C144.618 13.6219 145.312 14.3062 145.821 15.1916C146.33 16.0782 146.583 17.1 146.583 18.2582C146.583 19.4164 146.323 20.4393 145.801 21.3247C145.28 22.2113 144.574 22.8956 143.687 23.3789C142.799 23.8633 141.806 24.1044 140.708 24.1044C139.61 24.1044 138.648 23.8621 137.78 23.3789ZM142.162 21.2318C142.616 20.9802 142.978 20.6016 143.249 20.0972C143.521 19.5927 143.656 18.9801 143.656 18.257C143.656 17.1811 143.374 16.3522 142.813 15.7737C142.251 15.194 141.563 14.9047 140.749 14.9047C139.935 14.9047 139.255 15.194 138.706 15.7737C138.158 16.3533 137.883 17.1811 137.883 18.257C137.883 19.3329 138.151 20.1618 138.686 20.7415C139.222 21.3212 139.897 21.6104 140.709 21.6104C141.224 21.6104 141.709 21.4846 142.163 21.2318H142.162ZM158.804 12.5942V23.9209H155.937V22.49C155.571 22.9803 155.092 23.3659 154.503 23.6446C153.913 23.9233 153.273 24.0644 152.581 24.0644C151.7 24.0644 150.921 23.8774 150.243 23.5023C149.564 23.1273 149.033 22.5758 148.646 21.8468C148.26 21.1178 148.066 20.2488 148.066 19.24V12.5954H150.913V18.8308C150.913 19.7303 151.136 20.4229 151.584 20.9061C152.032 21.3906 152.641 21.6316 153.414 21.6316C154.187 21.6316 154.817 21.3894 155.264 20.9061C155.712 20.4229 155.935 19.7303 155.935 18.8308V12.5954H158.803L158.804 12.5942ZM161.051 15.1705C161.504 14.2851 162.124 13.6031 162.911 13.1257C163.697 12.6483 164.572 12.4108 165.534 12.4108C166.266 12.4108 166.964 12.5707 167.629 12.8917C168.293 13.2115 168.822 13.6384 169.214 14.1698V8.7928H172.102V23.9209H169.214V22.2442C168.861 22.8027 168.367 23.2531 167.73 23.5941C167.093 23.935 166.354 24.1055 165.514 24.1055C164.565 24.1055 163.698 23.8598 162.911 23.3695C162.125 22.8792 161.504 22.1866 161.051 21.2941C160.597 20.4017 160.37 19.3764 160.37 18.217C160.37 17.0577 160.597 16.057 161.051 15.1705ZM168.829 16.4686C168.557 15.9712 168.191 15.5891 167.73 15.3233C167.27 15.0576 166.775 14.9247 166.246 14.9247C165.718 14.9247 165.23 15.0541 164.782 15.3127C164.336 15.5714 163.972 15.95 163.695 16.4474C163.416 16.9448 163.278 17.5339 163.278 18.2158C163.278 18.8978 163.418 19.494 163.695 20.0043C163.972 20.5158 164.338 20.9073 164.793 21.1801C165.247 21.4529 165.732 21.5893 166.246 21.5893C166.761 21.5893 167.27 21.4564 167.73 21.1907C168.191 20.9249 168.557 20.544 168.829 20.0454C169.1 19.548 169.235 18.9519 169.235 18.257C169.235 17.5621 169.1 16.9659 168.829 16.4686Z" fill="#171C37"></path></g><defs><linearGradient id="paint0_linear_43_502" x1="16.9463" y1="21.728" x2="45.3064" y2="21.728" gradientUnits="userSpaceOnUse"><stop stop-color="#86D2EF"></stop><stop offset="0.16" stop-color="#84CDEE"></stop><stop offset="0.33" stop-color="#81C1ED"></stop><stop offset="0.49" stop-color="#7BACEB"></stop><stop offset="0.66" stop-color="#738FE8"></stop><stop offset="0.83" stop-color="#696AE5"></stop><stop offset="1" stop-color="#5E3FE1"></stop></linearGradient><linearGradient id="paint1_linear_43_502" x1="8.42817" y1="16.0123" x2="37.1309" y2="16.0123" gradientUnits="userSpaceOnUse"><stop stop-color="#5E3FE1"></stop><stop offset="0.22" stop-color="#5B3DDC"></stop><stop offset="0.44" stop-color="#5439D0"></stop><stop offset="0.67" stop-color="#4932BB"></stop><stop offset="0.9" stop-color="#3A289E"></stop><stop offset="1" stop-color="#322490"></stop></linearGradient><linearGradient id="paint2_linear_43_502" x1="0" y1="22.2183" x2="19.5156" y2="22.2183" gradientUnits="userSpaceOnUse"><stop stop-color="#5B36C6"></stop><stop offset="1" stop-color="#171C37"></stop></linearGradient><clipPath id="clip0_43_502"><rect width="172" height="32" fill="white"></rect></clipPath></defs></svg>